<svg xmlns="http://www.w3.org/2000/svg" viewBox="0 0 71.13 63.27"><defs><style>.cls-1,.cls-2{fill:none;stroke:#000;stroke-linejoin:round;stroke-width:3px;}.cls-2{stroke-linecap:round;}</style></defs><title>Asset 14</title><g id="Layer_2" data-name="Layer 2"><g id="Layer_2-2" data-name="Layer 2"><path class="cls-1" d="M48.72,33.25a6.68,6.68,0,0,0-10.56-4.67,3,3,0,0,1-3.58,0A6.69,6.69,0,1,0,29,40.48,9.15,9.15,0,0,0,28.27,44c0,4.81,2.32,8.88,5.54,10.33a22.36,22.36,0,0,1-.49-4.8c0-4.91,1.36-8,3-8s3.05,3.1,3.05,8a23.06,23.06,0,0,1-.48,4.8c3.21-1.45,5.53-5.52,5.53-10.33a9.34,9.34,0,0,0-.7-3.56A6.68,6.68,0,0,0,48.72,33.25Z"/><line class="cls-1" x1="24.7" y1="17.99" x2="46.43" y2="17.99"/><path class="cls-1" d="M53.78,18h4.29a4.83,4.83,0,0,1,4.83,4.83V56.94a4.83,4.83,0,0,1-4.83,4.83h-45a4.83,4.83,0,0,1-4.83-4.83V22.82A4.83,4.83,0,0,1,13.06,18h4.26"/><rect class="cls-1" x="1.5" y="1.5" width="68.13" height="6.94" rx="3.47"/><path class="cls-1" d="M17.32,8.44h7.4a0,0,0,0,1,0,0v9.15a3.7,3.7,0,0,1-3.7,3.7h0a3.7,3.7,0,0,1-3.7-3.7V8.44a0,0,0,0,1,0,0Z"/><path class="cls-1" d="M46.41,8.44h7.4a0,0,0,0,1,0,0v9.15a3.7,3.7,0,0,1-3.7,3.7h0a3.7,3.7,0,0,1-3.7-3.7V8.44A0,0,0,0,1,46.41,8.44Z"/><line class="cls-2" x1="8.23" y1="54.37" x2="21.02" y2="54.37"/><line class="cls-2" x1="62.9" y1="54.37" x2="50.1" y2="54.37"/></g></g></svg>