<svg xmlns="http://www.w3.org/2000/svg" viewBox="0 0 57.59 70.13"><defs><style>.cls-1{fill:none;stroke:#000;stroke-linejoin:round;stroke-width:3px;}</style></defs><title>Asset 13</title><g id="Layer_2" data-name="Layer 2"><g id="Layer_2-2" data-name="Layer 2"><path class="cls-1" d="M29.41,44.05a5.16,5.16,0,0,0-8.15-3.6,2.34,2.34,0,0,1-2.76,0,5.16,5.16,0,1,0-4.32,9.18,10.8,10.8,0,0,0-.54,3.42c0,3.71,1.78,6.85,4.26,8a17.91,17.91,0,0,1-.37-3.71c0-3.78,1-6.84,2.35-6.84s2.36,3.06,2.36,6.84A17.21,17.21,0,0,1,21.86,61c2.48-1.12,4.27-4.26,4.27-8a11.09,11.09,0,0,0-.54-3.42A5.15,5.15,0,0,0,29.41,44.05Z"/><circle class="cls-1" cx="19.88" cy="50.25" r="18.38"/><path class="cls-1" d="M19.88,31.86V25.49a9.5,9.5,0,0,1,9.5-9.5H46.59a9.5,9.5,0,0,1,9.5,9.5V55.32a6,6,0,0,1-6,6H34.52"/><rect class="cls-1" x="27.75" y="10.49" width="20.48" height="5.5"/><rect class="cls-1" x="22.81" y="1.5" width="30.35" height="8.99" rx="2.02"/><line class="cls-1" x1="27.43" y1="1.5" x2="27.43" y2="10.49"/><line class="cls-1" x1="32.71" y1="1.5" x2="32.71" y2="10.49"/><line class="cls-1" x1="37.99" y1="1.5" x2="37.99" y2="10.49"/><line class="cls-1" x1="43.26" y1="1.5" x2="43.26" y2="10.49"/><line class="cls-1" x1="48.54" y1="1.5" x2="48.54" y2="10.49"/><path class="cls-1" d="M26.59,33.13A12.67,12.67,0,1,1,38,51.34"/></g></g></svg>