<svg xmlns="http://www.w3.org/2000/svg" viewBox="0 0 69.66 69.66"><defs><style>.cls-1,.cls-2,.cls-3{fill:none;stroke:#000;stroke-width:3px;}.cls-1,.cls-2{stroke-miterlimit:10;}.cls-2,.cls-3{stroke-linecap:round;}.cls-3{stroke-linejoin:round;}</style></defs><title>Asset 4</title><g id="Layer_2" data-name="Layer 2"><g id="Layer_2-2" data-name="Layer 2"><circle class="cls-1" cx="56.44" cy="13.23" r="11.73"/><line class="cls-2" x1="48.15" y1="21.52" x2="41.02" y2="28.64"/><path class="cls-3" d="M33.47,27.69H43.93a1.18,1.18,0,0,1,1.18,1.18v5.37a0,0,0,0,1,0,0H32.29a0,0,0,0,1,0,0V28.86A1.18,1.18,0,0,1,33.47,27.69Z" transform="translate(33.23 -18.3) rotate(45)"/><path class="cls-3" d="M12,26.7H29a1.18,1.18,0,0,1,1.18,1.18V62.65a9,9,0,0,1-9,9H19.84a9,9,0,0,1-9-9V27.87A1.18,1.18,0,0,1,12,26.7Z" transform="translate(40.77 -0.09) rotate(45)"/><line class="cls-3" x1="7.28" y1="48.72" x2="20.94" y2="62.38"/><circle class="cls-2" cx="56.44" cy="13.23" r="5.82"/></g></g></svg>