<svg xmlns="http://www.w3.org/2000/svg" viewBox="0 0 70.81 72"><defs><style>.cls-1,.cls-2{fill:none;stroke:#000;stroke-linejoin:round;stroke-width:3px;}.cls-2{stroke-linecap:round;}</style></defs><title>Asset 15</title><g id="Layer_2" data-name="Layer 2"><g id="Layer_2-2" data-name="Layer 2"><path class="cls-1" d="M28.6,43.17a5.62,5.62,0,0,0-8.89-3.92,2.57,2.57,0,0,1-3,0,5.62,5.62,0,0,0-3.9-1,5.63,5.63,0,0,0-.82,11A12.1,12.1,0,0,0,11.39,53c0,4,1.95,7.48,4.66,8.69a18.82,18.82,0,0,1-.41-4c0-4.13,1.15-7.47,2.57-7.47s2.57,3.34,2.57,7.47a19.48,19.48,0,0,1-.41,4C23.07,60.47,25,57,25,53a11.81,11.81,0,0,0-.59-3.73A5.62,5.62,0,0,0,28.6,43.17Z"/><path class="cls-2" d="M18.21,29.37V18.1A4.78,4.78,0,0,1,23,13.31H62.15A4.79,4.79,0,0,1,67,18.1v9.24"/><path class="cls-2" d="M67,39v9.23A4.79,4.79,0,0,1,62.15,53H34.58"/><path class="cls-2" d="M57,27.34H68a1.32,1.32,0,0,1,1.32,1.32v9A1.32,1.32,0,0,1,68,39H57a5.52,5.52,0,0,1-5.52-5.52v-.58A5.52,5.52,0,0,1,57,27.34Z"/><line class="cls-2" x1="57.41" y1="33.15" x2="60.4" y2="33.15"/><line class="cls-2" x1="18.21" y1="21.34" x2="36.91" y2="21.34"/><line class="cls-2" x1="43.59" y1="21.34" x2="47.82" y2="21.34"/><path class="cls-2" d="M24.59,13.31,53.72,1.65a2.16,2.16,0,0,1,2.8,1.21L60.7,13.31"/><path class="cls-2" d="M18.21,29.37,1.5,35.44V50.19s.33,16.7,16.71,20.31c16.38-3.61,16.7-20.31,16.7-20.31V35.44Z"/></g></g></svg>