<svg xmlns="http://www.w3.org/2000/svg" viewBox="0 0 43.46 64.92"><defs><style>.cls-1,.cls-2{fill:none;stroke:#000;stroke-linejoin:round;stroke-width:3px;}.cls-2{stroke-linecap:round;}</style></defs><title>Asset 16</title><g id="Layer_2" data-name="Layer 2"><g id="Layer_2-2" data-name="Layer 2"><path class="cls-1" d="M33.8,23A10.92,10.92,0,1,0,24.65,3.57a5,5,0,0,1-5.84,0,10.82,10.82,0,0,0-7.57-2A10.92,10.92,0,0,0,9.66,23Z"/><path class="cls-1" d="M10.75,23h22a0,0,0,0,1,0,0v5a3.22,3.22,0,0,1-3.22,3.22H14A3.22,3.22,0,0,1,10.75,28V23A0,0,0,0,1,10.75,23Z"/><path class="cls-1" d="M26.31,60,23.89,62.5a3,3,0,0,1-4.32,0L17.15,60a2.74,2.74,0,0,1-.78-1.92V31.18H27.09V58.06A2.74,2.74,0,0,1,26.31,60Z"/><line class="cls-2" x1="10.75" y1="35.8" x2="32.71" y2="38.44"/><line class="cls-2" x1="10.75" y1="41.98" x2="32.71" y2="44.62"/><line class="cls-2" x1="10.75" y1="48.16" x2="32.71" y2="50.81"/><line class="cls-2" x1="10.75" y1="54.35" x2="32.71" y2="56.99"/><path class="cls-2" d="M31.53,6.9a5.35,5.35,0,0,1,5.35,5.34"/></g></g></svg>