<svg xmlns="http://www.w3.org/2000/svg" viewBox="0 0 77.44 47.84"><defs><style>.cls-1,.cls-2{fill:none;stroke:#000;stroke-linejoin:round;stroke-width:3px;}.cls-2{stroke-linecap:round;}</style></defs><title>Asset 8</title><g id="Layer_2" data-name="Layer 2"><g id="Layer_2-2" data-name="Layer 2"><path class="cls-1" d="M38.67,9.2A8.74,8.74,0,0,0,31,1.55a8.64,8.64,0,0,0-6,1.6,3.93,3.93,0,0,1-4.64,0,8.61,8.61,0,0,0-6-1.6A8.69,8.69,0,0,0,13,18.6a11.93,11.93,0,0,0-.91,4.62c0,6.25,3,11.54,7.18,13.41a29.15,29.15,0,0,1-.63-6.23c0-6.37,1.77-10.4,4-10.4s4,4,4,10.4A29.12,29.12,0,0,1,26,36.63c4.18-1.87,7.19-7.16,7.19-13.41a11.93,11.93,0,0,0-.91-4.62A8.71,8.71,0,0,0,38.67,9.2Z"/><rect class="cls-1" x="17.62" y="8.69" width="10.01" height="5.76" rx="1.62"/><line class="cls-2" x1="17.62" y1="11.57" x2="3.33" y2="11.57"/><line class="cls-1" x1="27.63" y1="11.57" x2="38.61" y2="11.57"/><path class="cls-1" d="M70.86,9.2a8.73,8.73,0,0,0-7.69-7.65,8.63,8.63,0,0,0-6,1.6,3.93,3.93,0,0,1-4.64,0,8.63,8.63,0,0,0-6-1.6A8.69,8.69,0,0,0,45.22,18.6a11.75,11.75,0,0,0-.92,4.62c0,6.25,3,11.54,7.19,13.41a29.12,29.12,0,0,1-.64-6.23c0-6.37,1.78-10.4,4-10.4s4,4,4,10.4a29.15,29.15,0,0,1-.63,6.23c4.17-1.87,7.18-7.16,7.18-13.41a11.93,11.93,0,0,0-.91-4.62A8.69,8.69,0,0,0,70.86,9.2Z"/><rect class="cls-1" x="49.81" y="8.69" width="10.01" height="5.76" rx="1.62"/><line class="cls-1" x1="49.81" y1="11.57" x2="38.83" y2="11.57"/><line class="cls-2" x1="59.83" y1="11.57" x2="74.11" y2="11.57"/><line class="cls-2" x1="32.52" y1="19.5" x2="44.92" y2="19.5"/><path class="cls-2" d="M64.72,19.5H71a5,5,0,0,1,5,5V41.37a5,5,0,0,1-5,5H6.46a5,5,0,0,1-5-5V24.46a5,5,0,0,1,5-5h6.26"/></g></g></svg>