<svg xmlns="http://www.w3.org/2000/svg" viewBox="0 0 68.42 71.17"><defs><style>.cls-1,.cls-2{fill:none;stroke:#000;stroke-linejoin:round;stroke-width:3px;}.cls-2{stroke-linecap:round;}</style></defs><title>Asset 1</title><g id="Layer_2" data-name="Layer 2"><g id="Layer_2-2" data-name="Layer 2"><path class="cls-1" d="M14,29.77a14.47,14.47,0,0,0,10.22,9.94c-1,2.92-1.51,4.27-1.51,7.68,0,10.37,5,19.16,11.93,22.28a48.82,48.82,0,0,1-1-10.36C33.6,48.74,36.54,42,40.18,42s6.59,6.7,6.59,17.27a48.14,48.14,0,0,1-1.06,10.36c6.93-3.12,11.94-11.91,11.94-22.28,0-3.41-.55-4.76-1.52-7.68A14.43,14.43,0,1,0,44,14.05a6.54,6.54,0,0,1-7.7,0,14.32,14.32,0,0,0-7.13-2.68"/><circle class="cls-1" cx="15.69" cy="15.69" r="14.19"/><polygon class="cls-2" points="23.51 13.19 18.18 13.19 18.18 7.86 13.19 7.86 13.19 13.19 7.86 13.19 7.86 18.18 13.19 18.18 13.19 23.51 18.18 23.51 18.18 18.18 23.51 18.18 23.51 13.19"/></g></g></svg>