<svg xmlns="http://www.w3.org/2000/svg" viewBox="0 0 79.5 64.5"><defs><style>.cls-1,.cls-2{fill:none;stroke:#000;stroke-linejoin:round;stroke-width:3px;}.cls-2{stroke-linecap:round;}</style></defs><title>Asset 6</title><g id="Layer_2" data-name="Layer 2"><g id="Layer_2-2" data-name="Layer 2"><path class="cls-1" d="M43.33,21A9.71,9.71,0,0,0,28,14.18a4.38,4.38,0,0,1-5.18,0,9.71,9.71,0,1,0-8.14,17.26,13.34,13.34,0,0,0-1,5.16c0,7,3.37,12.89,8,15a32.43,32.43,0,0,1-.71-7C21,37.51,23,33,25.41,33s4.43,4.5,4.43,11.61a32.43,32.43,0,0,1-.71,7c4.66-2.1,8-8,8-15a13.34,13.34,0,0,0-1-5.16A9.7,9.7,0,0,0,43.33,21Z"/><path class="cls-2" d="M48.29,36.52a8.68,8.68,0,0,1,1,4.12V59.57A3.43,3.43,0,0,1,45.9,63h-41A3.43,3.43,0,0,1,1.5,59.57V40.64A8.67,8.67,0,0,1,10.17,32h4.34"/><path class="cls-1" d="M55.29,8.75H63a0,0,0,0,1,0,0v21A2.32,2.32,0,0,1,60.63,32h-3a2.32,2.32,0,0,1-2.32-2.32v-21A0,0,0,0,1,55.29,8.75Z" transform="translate(36.1 -37.76) rotate(49.37)"/><line class="cls-2" x1="50.29" y1="27.97" x2="42.36" y2="34.76"/><line class="cls-2" x1="63.51" y1="7.63" x2="72.39" y2="17.98"/><rect class="cls-2" x="68.35" y="5.93" width="5.52" height="8.33" transform="translate(32.47 -50.45) rotate(49.37)"/><line class="cls-2" x1="70.55" y1="3.04" x2="78" y2="11.73"/><polyline class="cls-2" points="68.9 31.48 63.23 31.57 62.23 36.35 54.15 34.49"/><polyline class="cls-2" points="47.26 1.5 46.32 7.09 50.85 8.94 47.57 16.55"/></g></g></svg>