<svg xmlns="http://www.w3.org/2000/svg" viewBox="0 0 41.84 76.29"><defs><style>.cls-1,.cls-2{fill:none;stroke:#000;stroke-linejoin:round;stroke-width:3px;}.cls-2{stroke-linecap:round;}</style></defs><title>Asset 5</title><g id="Layer_2" data-name="Layer 2"><g id="Layer_2-2" data-name="Layer 2"><path class="cls-1" d="M40.28,41.69a10.49,10.49,0,0,0-16.56-7.31,4.74,4.74,0,0,1-5.6,0,10.43,10.43,0,0,0-7.27-1.92A10.49,10.49,0,0,0,9.34,53a14.19,14.19,0,0,0-1.1,5.57c0,7.54,3.63,13.92,8.66,16.19a35.43,35.43,0,0,1-.76-7.53c0-7.68,2.14-12.54,4.78-12.54s4.78,4.86,4.78,12.54a35.43,35.43,0,0,1-.76,7.53c5-2.27,8.67-8.65,8.67-16.19A14.37,14.37,0,0,0,32.51,53,10.5,10.5,0,0,0,40.28,41.69Z"/><path class="cls-1" d="M29,13.52l-8.08-12-8.08,12L2.89,6.27V20.86a5.83,5.83,0,0,0,5.83,5.83h24.4A5.83,5.83,0,0,0,39,20.86V6.27Z"/><line class="cls-2" x1="2.89" y1="20.43" x2="17.7" y2="20.43"/><line class="cls-2" x1="25.02" y1="20.43" x2="29.1" y2="20.43"/></g></g></svg>