<svg xmlns="http://www.w3.org/2000/svg" viewBox="0 0 56.48 61.36"><defs><style>.cls-1{fill:none;stroke:#000;stroke-linejoin:round;stroke-width:3px;}</style></defs><title>Asset 2</title><g id="Layer_2" data-name="Layer 2"><g id="Layer_2-2" data-name="Layer 2"><path class="cls-1" d="M54.88,14.3A14.43,14.43,0,0,0,32.09,4.23a6.53,6.53,0,0,1-7.71,0A14.43,14.43,0,1,0,12.29,29.9c-1,2.92-1.52,4.27-1.52,7.67,0,10.38,5,19.17,11.94,22.29a48.16,48.16,0,0,1-1.06-10.37c0-10.57,3-17.26,6.59-17.26s6.58,6.69,6.58,17.26a48.84,48.84,0,0,1-1,10.37C40.7,56.74,45.7,48,45.7,37.57c0-3.4-.55-4.75-1.51-7.67A14.42,14.42,0,0,0,54.88,14.3Z"/><path class="cls-1" d="M17,20.49,14.8,22.65a3.37,3.37,0,0,1-4.77,0h0a3.37,3.37,0,0,1,0-4.77l2.16-2.16"/><path class="cls-1" d="M17,11l2.16-2.16a3.37,3.37,0,0,1,4.77,0h0a3.37,3.37,0,0,1,0,4.77l-2.16,2.16"/><rect class="cls-1" x="13.59" y="5.92" width="6.75" height="19.61" rx="3.13" transform="translate(40.07 14.84) rotate(135)"/></g></g></svg>