<svg xmlns="http://www.w3.org/2000/svg" viewBox="0 0 56.48 61.36"><defs><style>.cls-1,.cls-2{fill:none;stroke:#000;stroke-linejoin:round;stroke-width:3px;}.cls-2{stroke-linecap:round;}</style></defs><title>Asset 12</title><g id="Layer_2" data-name="Layer 2"><g id="Layer_2-2" data-name="Layer 2"><path class="cls-1" d="M54.88,14.3A14.43,14.43,0,0,0,32.09,4.23a6.53,6.53,0,0,1-7.71,0A14.43,14.43,0,1,0,12.29,29.9c-1,2.92-1.52,4.27-1.52,7.67,0,10.38,5,19.17,11.94,22.29a48.16,48.16,0,0,1-1.06-10.37c0-10.57,3-17.26,6.59-17.26s6.58,6.69,6.58,17.26a48.84,48.84,0,0,1-1,10.37C40.7,56.74,45.7,48,45.7,37.57c0-3.4-.55-4.75-1.51-7.67A14.42,14.42,0,0,0,54.88,14.3Z"/><polyline class="cls-2" points="10.38 2.63 13.83 12.29 19.94 14.06 22.19 18.72 27.17 20.49"/><polyline class="cls-2" points="16.41 13.04 12.44 17.7 14.42 23.92"/><polyline class="cls-2" points="24.05 19.38 28.24 15.83 32.88 15.83"/></g></g></svg>