<svg xmlns="http://www.w3.org/2000/svg" viewBox="0 0 62.79 62.3"><defs><style>.cls-1{fill:none;stroke:#000;stroke-linejoin:round;stroke-width:3px;}</style></defs><title>Asset 10</title><g id="Layer_2" data-name="Layer 2"><g id="Layer_2-2" data-name="Layer 2"><path class="cls-1" d="M40.92,16.69a5.16,5.16,0,0,0-8.15-3.6,2.34,2.34,0,0,1-2.76,0,5.11,5.11,0,0,0-3.58-.95,5.16,5.16,0,0,0-.74,10.13,10.74,10.74,0,0,0-.54,3.41c0,3.71,1.79,6.86,4.26,8A17.88,17.88,0,0,1,29,30c0-3.78,1.05-6.85,2.35-6.85s2.36,3.07,2.36,6.85a17.19,17.19,0,0,1-.38,3.7c2.48-1.11,4.27-4.26,4.27-8a11,11,0,0,0-.54-3.41A5.16,5.16,0,0,0,40.92,16.69Z"/><path class="cls-1" d="M49.77,19.88C49.77,30,31.39,50,31.39,50S13,30,13,19.88a18.38,18.38,0,0,1,36.76,0Z"/><path class="cls-1" d="M39.88,39.71C52.26,41,61.29,45.15,61.29,50,61.29,56,47.9,60.8,31.39,60.8S1.5,56,1.5,50c0-4.89,9-9,21.4-10.33"/></g></g></svg>