<svg xmlns="http://www.w3.org/2000/svg" viewBox="0 0 69.08 68.19"><defs><style>.cls-1,.cls-2{fill:none;stroke:#000;stroke-linejoin:round;stroke-width:3px;}.cls-2{stroke-linecap:round;}</style></defs><title>Asset 3</title><g id="Layer_2" data-name="Layer 2"><g id="Layer_2-2" data-name="Layer 2"><path class="cls-1" d="M59.87,12.12a4.52,4.52,0,0,0-4-4A4.46,4.46,0,0,0,52.77,9a2,2,0,0,1-2.4,0,4.46,4.46,0,0,0-3.12-.82A4.49,4.49,0,0,0,46.6,17a9.54,9.54,0,0,0-.48,3c0,3.23,1.56,6,3.72,6.94a15.59,15.59,0,0,1-.33-3.23c0-3.29.92-6,2.06-6s2,2.67,2,6a14.93,14.93,0,0,1-.33,3.23C55.45,25.93,57,23.19,57,20a9.54,9.54,0,0,0-.47-3A4.49,4.49,0,0,0,59.87,12.12Z"/><circle class="cls-1" cx="51.57" cy="17.52" r="16.02"/><line class="cls-2" x1="36.58" y1="11.87" x2="8.21" y2="11.87"/><path class="cls-2" d="M14.92,38.39H1.5V18.58a6.7,6.7,0,0,1,6.71-6.71h0a6.7,6.7,0,0,1,6.71,6.71V66.69l4.42-3.84,4.42,3.84,4.41-3.84,4.42,3.84L37,62.85l4.41,3.84,4.42-3.84,4.41,3.84V33.48"/><line class="cls-2" x1="21.18" y1="21.63" x2="26.11" y2="21.63"/><line class="cls-2" x1="32.22" y1="21.63" x2="36.08" y2="21.63"/><line class="cls-2" x1="21.18" y1="28.61" x2="26.11" y2="28.61"/><line class="cls-2" x1="32.22" y1="28.61" x2="40.01" y2="28.61"/><line class="cls-2" x1="21.18" y1="35.58" x2="26.11" y2="35.58"/><line class="cls-2" x1="32.22" y1="35.58" x2="43.03" y2="35.58"/><line class="cls-2" x1="21.18" y1="42.55" x2="26.11" y2="42.55"/><line class="cls-2" x1="32.22" y1="42.55" x2="43.03" y2="42.55"/><line class="cls-2" x1="33.79" y1="52.84" x2="43.64" y2="52.84"/></g></g></svg>