<svg xmlns="http://www.w3.org/2000/svg" viewBox="0 0 43.73 71.17"><defs><style>.cls-1,.cls-2{fill:none;stroke:#000;stroke-linejoin:round;stroke-width:3px;}.cls-2{stroke-linecap:round;}</style></defs><title>Asset 9</title><g id="Layer_2" data-name="Layer 2"><g id="Layer_2-2" data-name="Layer 2"><path class="cls-1" d="M30.57,37.78a4.91,4.91,0,0,0-7.75-3.42,2.22,2.22,0,0,1-2.62,0,4.91,4.91,0,1,0-4.11,8.73,10.28,10.28,0,0,0-.52,3.24c0,3.53,1.7,6.52,4.06,7.58a16.22,16.22,0,0,1-.36-3.52c0-3.6,1-6.51,2.24-6.51s2.24,2.91,2.24,6.51a16.87,16.87,0,0,1-.36,3.52c2.35-1.06,4.05-4,4.05-7.58a10.28,10.28,0,0,0-.51-3.24A4.92,4.92,0,0,0,30.57,37.78Z"/><rect class="cls-1" x="1.5" y="17.67" width="40.73" height="10.52" rx="3.75"/><rect class="cls-1" x="1.5" y="59.15" width="40.73" height="10.52" rx="3.75"/><rect class="cls-1" x="5.06" y="28.19" width="32.89" height="30.95"/><rect class="cls-1" x="13.46" y="11.12" width="16.8" height="6.55"/><rect class="cls-1" x="8.73" y="1.5" width="26.27" height="9.62" rx="1.87"/><line class="cls-2" x1="15.38" y1="1.5" x2="15.38" y2="5.47"/><line class="cls-2" x1="21.86" y1="1.5" x2="21.86" y2="5.47"/><line class="cls-2" x1="28.35" y1="1.5" x2="28.35" y2="5.47"/></g></g></svg>