<svg xmlns="http://www.w3.org/2000/svg" viewBox="0 0 68.59 69.86"><defs><style>.cls-1,.cls-2{fill:none;stroke:#000;stroke-linejoin:round;stroke-width:3px;}.cls-2{stroke-linecap:round;}</style></defs><title>Asset 11</title><g id="Layer_2" data-name="Layer 2"><g id="Layer_2-2" data-name="Layer 2"><path class="cls-1" d="M27.54,32.68H63.39a0,0,0,0,1,0,0V65.22a3.14,3.14,0,0,1-3.14,3.14H27.54a0,0,0,0,1,0,0V32.68A0,0,0,0,1,27.54,32.68Z"/><path class="cls-1" d="M37.69,23.57H26.49a2.65,2.65,0,0,0-2.65,2.65V30a2.65,2.65,0,0,0,2.65,2.65h38A2.65,2.65,0,0,0,67.09,30V26.22a2.65,2.65,0,0,0-2.65-2.65H53.24"/><path class="cls-1" d="M40.23,47.46H50.7a2.4,2.4,0,0,1,2.4,2.4V68.36a0,0,0,0,1,0,0H37.83a0,0,0,0,1,0,0V49.87A2.4,2.4,0,0,1,40.23,47.46Z"/><path class="cls-1" d="M37.83,6.9V4.64A3.13,3.13,0,0,0,34.7,1.5H4.64A3.13,3.13,0,0,0,1.5,4.64V65.22a3.14,3.14,0,0,0,3.14,3.14h22.9"/><line class="cls-2" x1="7.41" y1="10.14" x2="10.95" y2="10.14"/><line class="cls-2" x1="17.9" y1="10.14" x2="21.43" y2="10.14"/><line class="cls-2" x1="28.38" y1="10.14" x2="30.92" y2="10.14"/><line class="cls-2" x1="7.41" y1="19.29" x2="10.95" y2="19.29"/><line class="cls-2" x1="17.9" y1="19.29" x2="21.43" y2="19.29"/><line class="cls-2" x1="28.38" y1="19.29" x2="30.92" y2="19.29"/><line class="cls-2" x1="7.41" y1="28.43" x2="10.95" y2="28.43"/><line class="cls-2" x1="17.9" y1="28.43" x2="20.43" y2="28.43"/><line class="cls-2" x1="7.41" y1="37.57" x2="10.95" y2="37.57"/><line class="cls-2" x1="17.9" y1="37.57" x2="21.43" y2="37.57"/><line class="cls-2" x1="7.41" y1="46.71" x2="10.95" y2="46.71"/><line class="cls-2" x1="17.9" y1="46.71" x2="21.43" y2="46.71"/><polygon class="cls-2" points="50.93 12.79 47.97 12.79 47.97 9.84 42.95 9.84 42.95 12.79 40 12.79 40 17.81 42.95 17.81 42.95 20.76 47.97 20.76 47.97 17.81 50.93 17.81 50.93 12.79"/><circle class="cls-2" cx="45.46" cy="15.3" r="11.36"/><line class="cls-2" x1="37.83" y1="40.27" x2="53.1" y2="40.27"/></g></g></svg>