<svg enable-background="new 0 0 511.988 511.988" viewBox="0 0 511.988 511.988" xmlns="http://www.w3.org/2000/svg"><g fill="#37af47"><path d="m511.988 227.658c0-60.096-23.44-116.593-66.004-159.085-42.559-42.489-99.142-65.888-159.327-65.888-62.806 0-122.954 26.329-165.547 72.348-7.616-2.821-15.75-4.293-24.108-4.293-.001 0 .001 0 0 0-18.539 0-35.977 7.24-49.098 20.385-.274.275-.532.565-.772.87l-15.678 19.868c-14.987 18.993-25.114 41.58-29.285 65.318-4.207 23.943-2.269 48.627 5.605 71.384 5.707 16.494 12.887 29.151 21.342 37.622l193.83 194.143c6.704 6.717 16.109 12.686 27.956 17.74 17.668 7.539 36.431 11.233 55.167 11.232 31.195-.001 62.309-10.246 88.105-30.047l22.298-17.116c.348-.268.679-.558.989-.868 17.59-17.623 23.745-42.431 18.464-65.082 48.367-42.732 76.063-104.032 76.063-168.531zm-108.241 219.036-21.75 16.696c-35.571 27.305-82.795 33.545-123.246 16.285-9.479-4.044-16.763-8.578-21.65-13.474l-193.831-194.144c-6.301-6.313-11.885-16.418-16.596-30.032-13.829-39.97-6.173-83.997 20.48-117.773l15.301-19.391c9.295-9.111 21.541-14.121 34.546-14.121 13.19 0 25.599 5.155 34.941 14.514l32.021 32.081c18.41 18.444 18.41 48.454-.002 66.9l-35.863 35.951c-3.895 3.905-3.894 10.226.003 14.128l126.446 126.631c1.876 1.878 4.421 2.934 7.076 2.934h.003c2.656 0 5.202-1.058 7.077-2.938l35.86-35.948c8.919-8.936 20.767-13.857 33.36-13.857s24.44 4.921 33.36 13.857l32.021 32.081c19.135 19.17 19.282 50.268.443 69.62zm-15.287-112.803-3.021-3.026c-12.698-12.722-29.573-19.728-47.515-19.728-17.943 0-34.817 7.006-47.518 19.73l-28.786 28.857-112.313-112.479 28.812-28.883c25.359-25.407 26.159-66.243 2.401-92.624 27.711-28.735 66.034-45.095 106.137-45.095 81.209 0 147.276 65.95 147.276 147.014 0 40.189-16.496 78.547-45.473 106.234zm29.001 29.055-14.869-14.897c32.721-31.428 51.341-74.875 51.341-120.392 0-92.092-75.04-167.014-167.276-167.014-45.385 0-88.762 18.449-120.206 50.873l-20.353-20.391c-2.191-2.195-4.502-4.225-6.918-6.084 38.582-39.723 91.887-62.356 147.477-62.356 113.22 0 205.331 91.95 205.331 204.972 0 56.381-23.234 110.084-64.048 148.736-2.866-4.796-6.359-9.319-10.479-13.447z"></path><path d="m355.669 228.279h-1.121c.121-21.045.184-43.537-.076-46.664-.586-7.056-4.823-12.807-10.796-14.65-5.923-1.828-12.211.471-16.822 6.152-4.979 6.136-27.961 47.742-34.886 60.347-1.702 3.098-1.642 6.864.158 9.907 1.8 3.042 5.072 4.908 8.606 4.908h33.681c-.041 5.609-.084 10.986-.125 15.844-.047 5.523 4.391 10.038 9.914 10.085.029.001.059.001.088.001 5.482 0 9.951-4.421 9.997-9.914.026-2.999.074-8.807.128-16.016h1.253c5.523 0 10-4.477 10-10 .001-5.523-4.477-10-9.999-10zm-21.125 0h-16.853c6.251-11.227 12.345-21.998 16.965-29.943-.004 8.206-.048 18.878-.112 29.943z"></path><path d="m277.116 256.998c-8.794.111-18.124.184-25.861.199 4.857-6.523 11.614-15.793 20.75-28.902 5.593-8.025 9.24-15.609 10.84-22.541.375-1.584.688-4.6.689-5.647.018-17.91-14.528-32.48-32.385-32.48-15.444 0-28.809 11.02-31.779 26.204-1.06 5.42 2.474 10.673 7.895 11.733 5.419 1.059 10.673-2.475 11.733-7.895 1.138-5.819 6.248-10.042 12.151-10.042 6.649 0 12.09 5.307 12.373 11.938l-.272 2.136c-1.091 4.338-3.664 9.436-7.654 15.16-13.857 19.883-22.126 30.756-26.567 36.598-5.489 7.217-7.994 10.511-6.29 16.041 1.001 3.249 3.461 5.744 6.749 6.844 1.337.448 2.619.877 19.628.877 6.676 0 15.777-.066 28.251-.224 5.522-.069 9.943-4.603 9.873-10.125-.068-5.523-4.619-9.93-10.124-9.874z"></path></g></svg>